<svg width="105" height="16" viewBox="0 0 105 16" fill="none" xmlns="http://www.w3.org/2000/svg">
<path d="M0.544375 3.4C0.619042 3.13333 0.789708 3 1.05638 3C1.32304 3 1.49904 3.26667 1.58438 3.8H1.64838L2.38438 3.64C2.72571 3.64 3.05638 3.96 3.37638 4.6H3.44038C3.90971 3.864 4.38971 3.496 4.88038 3.496C5.92571 3.688 6.44838 4.37067 6.44838 5.544L6.48038 6.104L6.33638 9.336V9.64C6.33638 9.90667 6.17104 10.0613 5.84038 10.104C5.50971 10.104 5.34438 9.71467 5.34438 8.936L5.53638 6.04C5.53638 4.97333 5.28571 4.44 4.78438 4.44C4.49638 4.44 4.14971 5.13867 3.74438 6.536C3.54171 8.136 3.37638 8.936 3.24838 8.936C3.06704 8.936 2.97638 8.97333 2.97638 9.048C2.64571 9.00533 2.48038 8.83467 2.48038 8.536L2.68838 6.6C2.65638 5.26667 2.52304 4.6 2.28838 4.6H2.24038C1.97371 4.80267 1.84038 5.20267 1.84038 5.8V6.648L1.77638 9.096C1.70171 9.36267 1.53638 9.496 1.28038 9.496C1.05638 9.496 0.912375 9.30933 0.848375 8.936L0.784375 7.048L0.880375 5.496C0.816375 4.696 0.704375 3.99733 0.544375 3.4ZM10.3585 2.824C10.8278 2.824 11.0625 3.01067 11.0625 3.384L10.9185 3.688L10.8225 6.616C10.8225 7.93867 11.0892 8.76 11.6225 9.08L11.6545 9.32C11.6225 9.62933 11.4785 9.784 11.2225 9.784H11.1265C10.3265 9.24 9.9265 8.408 9.9265 7.288H9.8145C9.38783 8.48267 8.8705 9.08 8.2625 9.08C7.69717 8.92 7.4145 8.49867 7.4145 7.816C7.4145 6.312 8.01717 4.81333 9.2225 3.32C9.62783 2.98933 10.0065 2.824 10.3585 2.824ZM8.4225 7.176L8.3585 7.624V7.928H8.5185C9.3185 5.93333 9.7185 4.71733 9.7185 4.28H9.6545C9.03583 4.97333 8.62517 5.93867 8.4225 7.176ZM15.7984 0.216C15.9797 0.216 16.145 0.386666 16.2944 0.728L15.5904 5.176V6.424C15.5904 7.72533 15.793 8.376 16.1984 8.376C16.465 8.504 16.5984 8.67467 16.5984 8.888C16.5984 9.13333 16.385 9.27733 15.9584 9.32C15.489 9.32 15.121 8.888 14.8544 8.024H14.6944C14.2997 8.888 13.8197 9.32 13.2544 9.32C12.593 9.32 12.193 8.81867 12.0544 7.816C12.0544 6.65333 12.833 5.42133 14.3904 4.12C14.6997 4.12 14.8544 3.688 14.8544 2.824C15.089 1.08533 15.4037 0.216 15.7984 0.216ZM12.9984 7.688V8.12L13.2544 8.376H13.3504C13.6917 8.376 14.0917 7.34667 14.5504 5.288H14.4544C13.4837 6.25867 12.9984 7.05867 12.9984 7.688ZM18.6034 3.256C19.03 3.26667 19.75 4.01333 20.7634 5.496L20.7954 5.768C20.7954 6.06667 20.0647 6.296 18.6034 6.456L18.5554 6.504V6.568C18.7794 7.528 19.014 8.008 19.2594 8.008H19.4514C19.7927 8.008 20.31 7.64 21.0034 6.904H21.0994C21.3127 6.904 21.478 7.05867 21.5954 7.368C21.5954 7.624 21.1474 8.06667 20.2514 8.696C20.0167 8.83467 19.734 8.936 19.4034 9C18.5394 9 17.9367 8.18933 17.5954 6.568C17.1047 6.49333 16.8594 6.29067 16.8594 5.96C16.8594 5.72533 17.0407 5.57067 17.4034 5.496V5.56L17.5634 5.496V5.096C17.5634 3.86933 17.91 3.256 18.6034 3.256ZM18.6994 4.408H18.5554L18.4914 5V5.496H18.5554C19.1527 5.47467 19.4514 5.41067 19.4514 5.304C19.174 4.888 18.9234 4.58933 18.6994 4.408ZM28.3695 1.4C28.9242 1.4 29.2815 2.488 29.4415 4.664L29.5375 5.16C30.0282 4.15733 30.4282 3.656 30.7375 3.656C30.7375 3.61333 30.8495 3.58133 31.0735 3.56H31.1375C31.8415 3.56 32.2895 4.10933 32.4815 5.208V5.256C32.4815 6.19467 32.0122 7.22933 31.0735 8.36C30.6788 8.78667 30.2468 9 29.7775 9C29.2442 8.88267 28.9775 8.616 28.9775 8.2L28.1775 2.456L27.9375 1.864C27.9375 1.672 28.0815 1.51733 28.3695 1.4ZM30.0335 7.896H30.0815C30.6362 7.672 31.1215 6.90933 31.5375 5.608V5C31.4415 4.66933 31.3188 4.504 31.1695 4.504H31.0415C30.5722 4.78133 30.2362 5.912 30.0335 7.896ZM33.8004 4.2C34.1737 4.2 34.4297 5.02133 34.5684 6.664C34.7497 7.42133 34.883 7.8 34.9684 7.8H35.0644C35.331 7.128 35.4644 6.46133 35.4644 5.8L35.3684 4.696C35.4857 4.408 35.651 4.264 35.8644 4.264C36.259 4.264 36.4564 4.96267 36.4564 6.36C36.691 7.81067 36.8084 9.16 36.8084 10.408V11.16C36.8084 13.4533 36.1577 15 34.8564 15.8L34.5044 15.864C33.8964 15.864 33.331 15.2987 32.8084 14.168L32.6644 13.208V13.16C32.6644 12.456 32.8617 12.104 33.2564 12.104L33.6564 12.36L33.6084 13.368C33.6084 13.8587 33.859 14.3547 34.3604 14.856H34.5684C35.155 14.856 35.587 13.736 35.8644 11.496L35.8964 10.568C35.8857 9.49067 35.843 8.80267 35.7684 8.504C35.3417 8.87733 35.0057 9.064 34.7604 9.064C34.2164 9.064 33.731 7.608 33.3044 4.696L33.2564 4.664C33.2564 4.41867 33.4377 4.264 33.8004 4.2Z" fill="#023047"/>
<path d="M47.314 0.216C47.4953 0.216 47.6607 0.386666 47.81 0.728L47.106 5.176V6.424C47.106 7.72533 47.3087 8.376 47.714 8.376C47.9807 8.504 48.114 8.67467 48.114 8.888C48.114 9.13333 47.9007 9.27733 47.474 9.32C47.0047 9.32 46.6367 8.888 46.37 8.024H46.21C45.8153 8.888 45.3353 9.32 44.77 9.32C44.1087 9.32 43.7087 8.81867 43.57 7.816C43.57 6.65333 44.3487 5.42133 45.906 4.12C46.2153 4.12 46.37 3.688 46.37 2.824C46.6047 1.08533 46.9193 0.216 47.314 0.216ZM44.514 7.688V8.12L44.77 8.376H44.866C45.2073 8.376 45.6073 7.34667 46.066 5.288H45.97C44.9993 6.25867 44.514 7.05867 44.514 7.688ZM51.671 2.824C52.1403 2.824 52.375 3.01067 52.375 3.384L52.231 3.688L52.135 6.616C52.135 7.93867 52.4017 8.76 52.935 9.08L52.967 9.32C52.935 9.62933 52.791 9.784 52.535 9.784H52.439C51.639 9.24 51.239 8.408 51.239 7.288H51.127C50.7003 8.48267 50.183 9.08 49.575 9.08C49.0097 8.92 48.727 8.49867 48.727 7.816C48.727 6.312 49.3297 4.81333 50.535 3.32C50.9403 2.98933 51.319 2.824 51.671 2.824ZM49.735 7.176L49.671 7.624V7.928H49.831C50.631 5.93333 51.031 4.71733 51.031 4.28H50.967C50.3483 4.97333 49.9377 5.93867 49.735 7.176ZM55.4309 3.608C56.3375 3.68267 56.7909 4.12533 56.7909 4.936L56.8229 5.144L56.7909 7.64C56.7909 7.928 56.9562 8.31733 57.2869 8.808V8.84C57.2015 9.14933 57.0469 9.304 56.8229 9.304C56.1615 9.02667 55.8309 8.44 55.8309 7.544V7.336L55.7829 7.304L55.8309 7.24V7.208L55.8789 5C55.8789 4.69067 55.7455 4.536 55.4789 4.536H55.2869C54.7535 4.74933 54.4869 5.91733 54.4869 8.04C54.4869 8.776 54.3002 9.144 53.9269 9.144C53.6389 9.144 53.4895 8.96267 53.4789 8.6V7C53.4789 4.93067 53.6602 3.896 54.0229 3.896L54.1829 3.848L54.5189 3.896C54.8069 3.704 55.1109 3.608 55.4309 3.608ZM57.9804 0.664C58.3857 0.749333 58.5884 0.930666 58.5884 1.208C58.4817 1.50667 58.311 1.656 58.0764 1.656C57.6817 1.58133 57.4844 1.384 57.4844 1.064C57.591 0.797333 57.7564 0.664 57.9804 0.664ZM58.5884 2.904C58.759 2.904 58.903 3.05867 59.0204 3.368L58.8764 4.504V5.256C58.8764 6.13067 59.0257 7.27733 59.3244 8.696C59.2177 8.89867 59.0364 9 58.7804 9C58.343 9 58.055 7.72 57.9164 5.16V4.6C57.9164 3.46933 58.1404 2.904 58.5884 2.904ZM61.5878 3.256C62.0144 3.26667 62.7344 4.01333 63.7478 5.496L63.7798 5.768C63.7798 6.06667 63.0491 6.296 61.5878 6.456L61.5398 6.504V6.568C61.7638 7.528 61.9984 8.008 62.2438 8.008H62.4358C62.7771 8.008 63.2944 7.64 63.9878 6.904H64.0838C64.2971 6.904 64.4624 7.05867 64.5798 7.368C64.5798 7.624 64.1318 8.06667 63.2358 8.696C63.0011 8.83467 62.7184 8.936 62.3878 9C61.5238 9 60.9211 8.18933 60.5798 6.568C60.0891 6.49333 59.8438 6.29067 59.8438 5.96C59.8438 5.72533 60.0251 5.57067 60.3878 5.496V5.56L60.5478 5.496V5.096C60.5478 3.86933 60.8944 3.256 61.5878 3.256ZM61.6838 4.408H61.5398L61.4758 5V5.496H61.5398C62.1371 5.47467 62.4358 5.41067 62.4358 5.304C62.1584 4.888 61.9078 4.58933 61.6838 4.408ZM66.1066 0.184C66.4053 0.290667 66.5546 0.456 66.5546 0.679999L66.7146 6.776V8.744C66.7146 9.10667 66.56 9.288 66.2506 9.288H66.0426C65.8506 9.16 65.7546 9.01067 65.7546 8.84V6.984L65.6106 0.648C65.6106 0.381333 65.776 0.226666 66.1066 0.184ZM68.7785 0.184C69.0772 0.290667 69.2265 0.456 69.2265 0.679999L69.3865 6.776V8.744C69.3865 9.10667 69.2318 9.288 68.9225 9.288H68.7145C68.5225 9.16 68.4265 9.01067 68.4265 8.84V6.984L68.2825 0.648C68.2825 0.381333 68.4478 0.226666 68.7785 0.184ZM71.9784 3.256C72.405 3.26667 73.125 4.01333 74.1384 5.496L74.1704 5.768C74.1704 6.06667 73.4397 6.296 71.9784 6.456L71.9304 6.504V6.568C72.1544 7.528 72.389 8.008 72.6344 8.008H72.8264C73.1677 8.008 73.685 7.64 74.3784 6.904H74.4744C74.6877 6.904 74.853 7.05867 74.9704 7.368C74.9704 7.624 74.5224 8.06667 73.6264 8.696C73.3917 8.83467 73.109 8.936 72.7784 9C71.9144 9 71.3117 8.18933 70.9704 6.568C70.4797 6.49333 70.2344 6.29067 70.2344 5.96C70.2344 5.72533 70.4157 5.57067 70.7784 5.496V5.56L70.9384 5.496V5.096C70.9384 3.86933 71.285 3.256 71.9784 3.256ZM72.0744 4.408H71.9304L71.8664 5V5.496H71.9304C72.5277 5.47467 72.8264 5.41067 72.8264 5.304C72.549 4.888 72.2984 4.58933 72.0744 4.408ZM82.5285 0.184C82.8272 0.290667 82.9765 0.456 82.9765 0.679999L83.1365 6.776V8.744C83.1365 9.10667 82.9818 9.288 82.6725 9.288H82.4645C82.2725 9.16 82.1765 9.01067 82.1765 8.84V6.984L82.0325 0.648C82.0325 0.381333 82.1978 0.226666 82.5285 0.184ZM85.7284 3.256C86.155 3.26667 86.875 4.01333 87.8884 5.496L87.9204 5.768C87.9204 6.06667 87.1897 6.296 85.7284 6.456L85.6804 6.504V6.568C85.9044 7.528 86.139 8.008 86.3844 8.008H86.5764C86.9177 8.008 87.435 7.64 88.1284 6.904H88.2244C88.4377 6.904 88.603 7.05867 88.7204 7.368C88.7204 7.624 88.2724 8.06667 87.3764 8.696C87.1417 8.83467 86.859 8.936 86.5284 9C85.6644 9 85.0617 8.18933 84.7204 6.568C84.2297 6.49333 83.9844 6.29067 83.9844 5.96C83.9844 5.72533 84.1657 5.57067 84.5284 5.496V5.56L84.6884 5.496V5.096C84.6884 3.86933 85.035 3.256 85.7284 3.256ZM85.8244 4.408H85.6804L85.6164 5V5.496H85.6804C86.2777 5.47467 86.5764 5.41067 86.5764 5.304C86.299 4.888 86.0484 4.58933 85.8244 4.408ZM89.9753 4.184L90.2633 4.024C90.5193 4.024 90.7059 4.17867 90.8233 4.488C90.6526 5.27733 90.5673 6.088 90.5673 6.92C90.5673 7.336 90.6899 7.78933 90.9353 8.28H91.0312C91.3406 8.28 91.7086 7.05867 92.1353 4.616C92.2846 4.488 92.4286 4.424 92.5673 4.424C92.8979 4.424 93.0633 5.01067 93.0633 6.184C93.2019 7.47467 93.3566 8.12 93.5273 8.12L93.7673 8.024C94.0766 8.14133 94.2313 8.30667 94.2313 8.52C94.0393 8.92533 93.7726 9.128 93.4313 9.128C93.0473 9.128 92.6793 8.744 92.3273 7.976C91.9006 8.872 91.4686 9.32 91.0312 9.32C90.3806 9.32 89.9273 8.64267 89.6713 7.288L89.6233 6.776V6.616C89.6233 5.76267 89.7406 4.952 89.9753 4.184ZM96.6496 3.608C97.5563 3.68267 98.0096 4.12533 98.0096 4.936L98.0416 5.144L98.0096 7.64C98.0096 7.928 98.175 8.31733 98.5056 8.808V8.84C98.4203 9.14933 98.2656 9.304 98.0416 9.304C97.3803 9.02667 97.0496 8.44 97.0496 7.544V7.336L97.0016 7.304L97.0496 7.24V7.208L97.0976 5C97.0976 4.69067 96.9643 4.536 96.6976 4.536H96.5056C95.9723 4.74933 95.7056 5.91733 95.7056 8.04C95.7056 8.776 95.519 9.144 95.1456 9.144C94.8576 9.144 94.7083 8.96267 94.6976 8.6V7C94.6976 4.93067 94.879 3.896 95.2416 3.896L95.4016 3.848L95.7376 3.896C96.0256 3.704 96.3296 3.608 96.6496 3.608ZM101.583 2.856C102.074 2.856 102.319 3.09067 102.319 3.56C102.383 3.56 102.415 3.64 102.415 3.8H102.479L102.415 4.264L102.479 7.496L102.383 10.056C103.343 10.056 103.988 10.76 104.319 12.168C104.319 12.456 104.122 12.6213 103.727 12.664C103.546 12.664 103.343 12.264 103.119 11.464C102.906 11.1547 102.66 11 102.383 11H102.319C101.978 13.272 101.679 14.408 101.423 14.408C101.114 14.9733 100.666 15.256 100.079 15.256C99.2151 15.0533 98.7831 14.6213 98.7831 13.96V13.864C98.7831 12.8613 99.4978 11.7733 100.927 10.6L101.423 10.296L101.487 8.568V8.168H101.423C101.06 8.62667 100.714 8.856 100.383 8.856H100.287C99.5511 8.856 99.1298 8.29067 99.0231 7.16V6.808C99.0231 5.44267 99.5245 4.25867 100.527 3.256C100.836 2.98933 101.188 2.856 101.583 2.856ZM99.9831 6.6V7.368C100.026 7.72 100.106 7.896 100.223 7.896H100.383C100.682 7.896 101.05 6.79733 101.487 4.6V3.8C100.847 3.8 100.346 4.73333 99.9831 6.6ZM99.7271 13.896C99.7698 14.1627 99.9191 14.296 100.175 14.296C100.687 14.296 101.055 13.384 101.279 11.56H101.183C100.212 12.4027 99.7271 13.1813 99.7271 13.896Z" fill="#FB8500"/>
</svg>
