<svg width="70" height="73" viewBox="0 0 70 73" fill="none" xmlns="http://www.w3.org/2000/svg">
<ellipse cx="35" cy="36.5" rx="36.5" ry="35" transform="rotate(-90 35 36.5)" fill="#219EBC"/>
<path d="M18 34.5C16.6193 34.5 15.5 35.6193 15.5 37C15.5 38.3807 16.6193 39.5 18 39.5V34.5ZM52.7678 38.7678C53.7441 37.7915 53.7441 36.2085 52.7678 35.2322L36.8579 19.3223C35.8816 18.346 34.2986 18.346 33.3223 19.3223C32.346 20.2986 32.346 21.8816 33.3223 22.8579L47.4645 37L33.3223 51.1421C32.346 52.1184 32.346 53.7014 33.3223 54.6777C34.2986 55.654 35.8816 55.654 36.8579 54.6777L52.7678 38.7678ZM18 39.5L51 39.5V34.5L18 34.5V39.5Z" fill="white"/>
</svg>
