<svg width="71" height="74" viewBox="0 0 71 74" fill="none" xmlns="http://www.w3.org/2000/svg">
<ellipse cx="35.5" cy="37" rx="36.5" ry="35" transform="rotate(-90 35.5 37)" fill="#FB8500"/>
<path d="M18.5 35C17.1193 35 16 36.1193 16 37.5C16 38.8807 17.1193 40 18.5 40V35ZM53.2678 39.2678C54.2441 38.2915 54.2441 36.7085 53.2678 35.7322L37.3579 19.8223C36.3816 18.846 34.7986 18.846 33.8223 19.8223C32.846 20.7986 32.846 22.3816 33.8223 23.3579L47.9645 37.5L33.8223 51.6421C32.846 52.6184 32.846 54.2014 33.8223 55.1777C34.7986 56.154 36.3816 56.154 37.3579 55.1777L53.2678 39.2678ZM18.5 40H51.5V35H18.5V40Z" fill="white"/>
</svg>
