<svg width="70" height="70" viewBox="0 0 70 70" fill="none" xmlns="http://www.w3.org/2000/svg">
<circle cx="35" cy="35" r="35" transform="rotate(-90 35 35)" fill="#FB8500"/>
<path d="M18 32.9795C16.6193 32.9795 15.5 34.0988 15.5 35.4795C15.5 36.8602 16.6193 37.9795 18 37.9795V32.9795ZM52.7678 37.2473C53.7441 36.2709 53.7441 34.688 52.7678 33.7117L36.8579 17.8018C35.8816 16.8255 34.2986 16.8255 33.3223 17.8018C32.346 18.7781 32.346 20.361 33.3223 21.3374L47.4645 35.4795L33.3223 49.6216C32.346 50.5979 32.346 52.1809 33.3223 53.1572C34.2986 54.1335 35.8816 54.1335 36.8579 53.1572L52.7678 37.2473ZM18 37.9795H51V32.9795H18V37.9795Z" fill="white"/>
</svg>
