<svg width="70" height="70" viewBox="0 0 70 70" fill="none" xmlns="http://www.w3.org/2000/svg">
<circle cx="35" cy="35" r="35" transform="rotate(-90 35 35)" fill="#219EBC"/>
<path d="M52.7303 27.1956L53.4863 26.9162C54.6692 26.479 55.2815 25.2089 54.8596 24.0674L50.7992 13.081C50.4915 12.2485 49.6965 11.6838 48.7787 11.6621C47.8608 11.6404 47.0082 12.1506 46.6133 12.9696L44.2329 17.9077C33.6977 13.3628 21.1574 18.0268 16.1766 28.3743C11.1698 38.7607 15.6679 50.9315 26.226 55.5654C36.7841 60.1994 49.3961 55.5382 54.4029 45.1518C55.1182 43.668 54.4743 41.9256 52.966 41.2636C51.4577 40.6016 49.6521 41.2689 48.9369 42.7527C45.3606 50.1716 36.3507 53.5015 28.8092 50.1915C21.2677 46.8816 18.0543 38.1869 21.6306 30.7681C25.1898 23.3848 34.119 20.0554 41.6377 23.2763L39.289 28.1635C38.8942 28.9826 39.0431 29.9324 39.6576 30.5832C40.2722 31.2341 41.2389 31.4426 42.1016 31.1238L52.7303 27.1956Z" fill="white"/>
</svg>
