<svg width="67" height="42" viewBox="0 0 67 42" fill="none" xmlns="http://www.w3.org/2000/svg">
<path d="M1.26344 3.16C2.27677 3.37333 2.78344 3.82667 2.78344 4.52C2.51677 5.26667 2.0901 5.64 1.50344 5.64C0.516771 5.45333 0.0234375 4.96 0.0234375 4.16C0.290104 3.49333 0.703438 3.16 1.26344 3.16ZM2.78344 8.76C3.2101 8.76 3.5701 9.14667 3.86344 9.92L3.50344 12.76V14.64C3.50344 16.8267 3.87677 19.6933 4.62344 23.24C4.35677 23.7467 3.90344 24 3.26344 24C2.1701 24 1.4501 20.8 1.10344 14.4V13C1.10344 10.1733 1.66344 8.76 2.78344 8.76ZM16.0819 2.04C16.5352 2.04 16.9485 2.46667 17.3219 3.32L15.5619 14.44V17.56C15.5619 20.8133 16.0685 22.44 17.0819 22.44C17.7485 22.76 18.0819 23.1867 18.0819 23.72C18.0819 24.3333 17.5485 24.6933 16.4819 24.8C15.3085 24.8 14.3885 23.72 13.7219 21.56H13.3219C12.3352 23.72 11.1352 24.8 9.72188 24.8C8.06854 24.8 7.06854 23.5467 6.72188 21.04C6.72188 18.1333 8.66854 15.0533 12.5619 11.8C13.3352 11.8 13.7219 10.72 13.7219 8.56C14.3085 4.21333 15.0952 2.04 16.0819 2.04ZM9.08188 20.72V21.8L9.72188 22.44H9.96188C10.8152 22.44 11.8152 19.8667 12.9619 14.72H12.7219C10.2952 17.1467 9.08188 19.1467 9.08188 20.72ZM23.0944 9.64C24.161 9.66667 25.961 11.5333 28.4944 15.24L28.5744 15.92C28.5744 16.6667 26.7477 17.24 23.0944 17.64L22.9744 17.76V17.92C23.5344 20.32 24.121 21.52 24.7344 21.52H25.2144C26.0677 21.52 27.361 20.6 29.0944 18.76H29.3344C29.8677 18.76 30.281 19.1467 30.5744 19.92C30.5744 20.56 29.4544 21.6667 27.2144 23.24C26.6277 23.5867 25.921 23.84 25.0944 24C22.9344 24 21.4277 21.9733 20.5744 17.92C19.3477 17.7333 18.7344 17.2267 18.7344 16.4C18.7344 15.8133 19.1877 15.4267 20.0944 15.24V15.4L20.4944 15.24V14.24C20.4944 11.1733 21.361 9.64 23.0944 9.64ZM23.3344 12.52H22.9744L22.8144 14V15.24H22.9744C24.4677 15.1867 25.2144 15.0267 25.2144 14.76C24.521 13.72 23.8944 12.9733 23.3344 12.52ZM39.5916 8.56C40.7649 8.56 41.3516 9.02667 41.3516 9.96L40.9916 10.72L40.7516 18.04C40.7516 21.3467 41.4182 23.4 42.7516 24.2L42.8316 24.8C42.7516 25.5733 42.3916 25.96 41.7516 25.96H41.5116C39.5116 24.6 38.5116 22.52 38.5116 19.72H38.2316C37.1649 22.7067 35.8716 24.2 34.3516 24.2C32.9382 23.8 32.2316 22.7467 32.2316 21.04C32.2316 17.28 33.7382 13.5333 36.7516 9.8C37.7649 8.97333 38.7116 8.56 39.5916 8.56ZM34.7516 19.44L34.5916 20.56V21.32H34.9916C36.9916 16.3333 37.9916 13.2933 37.9916 12.2H37.8316C36.2849 13.9333 35.2582 16.3467 34.7516 19.44Z" fill="#FB8500"/>
<path d="M46.0713 1.96C46.8179 2.22667 47.1913 2.64 47.1913 3.2L47.5913 18.44V23.36C47.5913 24.2667 47.2046 24.72 46.4313 24.72H45.9113C45.4313 24.4 45.1913 24.0267 45.1913 23.6V18.96L44.8313 3.12C44.8313 2.45333 45.2446 2.06667 46.0713 1.96ZM52.7509 1.96C53.4976 2.22667 53.8709 2.64 53.8709 3.2L54.2709 18.44V23.36C54.2709 24.2667 53.8843 24.72 53.1109 24.72H52.5909C52.1109 24.4 51.8709 24.0267 51.8709 23.6V18.96L51.5109 3.12C51.5109 2.45333 51.9243 2.06667 52.7509 1.96ZM58.4306 12C59.364 12 60.004 14.0533 60.3506 18.16C60.804 20.0533 61.1373 21 61.3506 21H61.5906C62.2573 19.32 62.5906 17.6533 62.5906 16L62.3506 13.24C62.644 12.52 63.0573 12.16 63.5906 12.16C64.5773 12.16 65.0706 13.9067 65.0706 17.4C65.6573 21.0267 65.9506 24.4 65.9506 27.52V29.4C65.9506 35.1333 64.324 39 61.0706 41L60.1906 41.16C58.6706 41.16 57.2573 39.7467 55.9506 36.92L55.5906 34.52V34.4C55.5906 32.64 56.084 31.76 57.0706 31.76L58.0706 32.4L57.9506 34.92C57.9506 36.1467 58.5773 37.3867 59.8306 38.64H60.3506C61.8173 38.64 62.8973 35.84 63.5906 30.24L63.6706 27.92C63.644 25.2267 63.5373 23.5067 63.3506 22.76C62.284 23.6933 61.444 24.16 60.8306 24.16C59.4706 24.16 58.2573 20.52 57.1906 13.24L57.0706 13.16C57.0706 12.5467 57.524 12.16 58.4306 12Z" fill="#023047"/>
<path d="M31.4511 7L27.8117 10" stroke="#023047" stroke-linecap="round"/>
<path d="M26.1312 3L24.6862 7.97425" stroke="#023047" stroke-linecap="round"/>
<path d="M20.5188 3L21.0468 7.08162" stroke="#023047" stroke-linecap="round"/>
</svg>
